<svg width="564" height="102" viewBox="0 0 564 102" fill="none" xmlns="http://www.w3.org/2000/svg">
<g clip-path="url(#clip0_189_126)">
<path d="M63.3341 0.603262V60.9296H53.6366V21.8898L35.6147 60.9296H27.6336L9.6975 21.976V60.9296H0V0.603262H9.35423L31.6671 48.0887L53.9799 0.603262H63.3341ZM108.131 0.603262L98.0049 11.7205H91.0536L97.0609 0.603262H108.131ZM94.5721 15.3401C104.699 15.3401 117.657 23.0964 117.657 38.6088C117.657 54.2075 104.699 61.7914 94.5721 61.7914C84.4455 61.7914 71.4869 54.2075 71.4869 38.6088C71.4869 23.0964 84.4455 15.3401 94.5721 15.3401ZM94.5721 23.6134C88.0499 23.6134 80.4979 28.6119 80.4979 38.6088C80.4979 48.5196 88.0499 53.5181 94.5721 53.5181C101.094 53.5181 108.646 48.5196 108.646 38.6088C108.646 28.6119 101.094 23.6134 94.5721 23.6134ZM149.925 15.4263C158.507 15.4263 166.917 21.028 166.917 34.9893V60.9296H157.649V35.5063C157.649 26.9745 153.615 23.6134 147.865 23.6134C140.485 23.6134 135.679 30.5079 134.649 34.9031V60.9296H125.381V16.1157H134.649V25.5956C135.508 22.8378 140.657 15.4263 149.925 15.4263V15.4263ZM184.767 0V8.10096H175.499V0H184.767V0ZM184.767 16.1157V60.9296H175.499V16.1157H184.767V16.1157ZM215.576 15.3401C223.643 15.3401 230.595 18.9597 234.628 26.1989L227.419 29.4737C224.759 25.8541 221.155 23.6134 215.662 23.6134C209.054 23.6134 201.502 28.6119 201.502 38.6088C201.502 48.5196 209.054 53.4319 215.662 53.4319C221.155 53.4319 224.759 51.2774 227.419 47.6578L234.714 50.9326C230.595 58.1718 223.729 61.7052 215.576 61.7052C205.45 61.7052 192.491 54.2075 192.491 38.6088C192.491 23.0964 205.45 15.3401 215.576 15.3401V15.3401ZM262.519 15.3401C270.586 15.3401 275.907 20.1662 277.023 23.0964V16.1157H286.291V60.9296H277.023V53.5181C275.907 57.1376 270.586 61.7914 262.519 61.7914C252.393 61.7914 240.292 54.2075 240.292 38.5227C240.292 23.0964 252.393 15.3401 262.519 15.3401V15.3401ZM263.721 23.6134C256.769 23.6134 249.303 28.6119 249.303 38.5227C249.303 48.5196 256.769 53.5181 263.721 53.5181C270.672 53.5181 277.452 48.6058 277.452 38.5227C277.452 28.5257 270.672 23.6134 263.721 23.6134ZM342.073 0.603262C355.547 0.603262 363.785 8.87658 363.785 20.5109C363.785 32.1453 355.547 39.9015 342.073 39.9015H331.346V60.9296H321.906V0.603262H342.073ZM341.644 31.6282C349.282 31.6282 354.345 28.0086 354.345 20.5109C354.345 13.0132 349.282 9.39367 341.644 9.39367H331.346V31.6282H341.644ZM392.878 15.3401C403.004 15.3401 416.735 23.0964 414.59 41.8837H379.061C380.434 49.8985 386.785 53.8628 393.993 53.8628C399.915 53.8628 403.09 52.3115 406.351 49.7261L411.586 54.7246C407.638 59.206 401.974 61.7914 393.736 61.7914C382.408 61.7914 369.792 54.0351 369.792 38.6088C369.792 23.0964 382.751 15.3401 392.878 15.3401ZM392.878 23.3549C387.128 23.3549 380.691 27.233 379.147 35.0754H406.437C405.407 27.233 398.628 23.3549 392.878 23.3549ZM431.839 0V60.9296H422.571V0H431.839ZM462.648 15.3401C470.715 15.3401 477.666 18.9597 481.7 26.1989L474.491 29.4737C471.831 25.8541 468.226 23.6134 462.734 23.6134C456.126 23.6134 448.574 28.6119 448.574 38.6088C448.574 48.5196 456.126 53.4319 462.734 53.4319C468.226 53.4319 471.831 51.2774 474.491 47.6578L481.786 50.9326C477.666 58.1718 470.801 61.7052 462.648 61.7052C452.522 61.7052 439.563 54.2075 439.563 38.6088C439.563 23.0964 452.522 15.3401 462.648 15.3401V15.3401ZM510.449 15.3401C520.576 15.3401 533.534 23.0964 533.534 38.6088C533.534 54.2075 520.576 61.7914 510.449 61.7914C500.323 61.7914 487.364 54.2075 487.364 38.6088C487.364 23.0964 500.323 15.3401 510.449 15.3401ZM510.449 23.6134C503.927 23.6134 496.375 28.6119 496.375 38.6088C496.375 48.5196 503.927 53.5181 510.449 53.5181C516.971 53.5181 524.523 48.5196 524.523 38.6088C524.523 28.6119 516.971 23.6134 510.449 23.6134ZM564 23.872H554.56V48.9505C554.56 51.3635 555.418 53.2595 558.164 53.2595C560.481 53.2595 562.112 52.8286 564 52.053V59.8954C562.112 60.8434 559.623 61.4467 555.761 61.4467C550.183 61.4467 545.292 59.206 545.292 49.2952V23.872H539.113V16.1157H545.292V5.60173H554.56V16.1157H564V23.872V23.872Z" fill="#EAD9E1"/>
<path d="M298.825 84.6637C301.83 84.6637 303.812 86.4615 304.228 87.553V84.9526H307.681V101.646H304.228V98.8855C303.812 100.234 301.83 101.967 298.825 101.967C295.053 101.967 290.545 99.1424 290.545 93.2995C290.545 87.553 295.053 84.6637 298.825 84.6637V84.6637ZM299.273 87.7456C296.683 87.7456 293.902 89.6076 293.902 93.2995C293.902 97.0235 296.683 98.8855 299.273 98.8855C301.862 98.8855 304.388 97.0556 304.388 93.2995C304.388 89.5755 301.862 87.7456 299.273 87.7456V87.7456ZM336.593 78.9492V101.646H333.141V78.9492H336.593ZM365.506 78.9492V81.967H362.053V78.9492H365.506V78.9492ZM365.506 84.9526V101.646H362.053V84.9526H365.506V84.9526ZM398.99 89.415C398.414 88.1308 397.487 87.4567 396.241 87.4567C394.962 87.4567 394.003 88.2271 394.003 89.2866C394.003 90.2497 394.546 90.9238 395.889 91.4054L397.711 92.0475C400.333 92.9785 402.506 93.9737 402.506 97.0235C402.506 100.266 399.342 102 396.273 102C393.331 102 390.646 100.298 390.007 97.4409L392.756 96.6062C393.236 98.115 394.482 99.2066 396.273 99.2066C397.743 99.2066 399.086 98.3398 399.086 97.0235C399.086 95.9641 398.351 95.322 396.944 94.8084L395.058 94.1342C391.989 93.0427 390.646 91.3733 390.646 89.2545C390.646 86.4615 393.14 84.6637 396.113 84.6637C398.99 84.6637 400.972 86.2367 401.867 88.6124L398.99 89.415ZM434.808 84.6637C437.813 84.6637 439.795 86.4615 440.21 87.553V84.9526H443.663V101.646H440.21V98.8855C439.795 100.234 437.813 101.967 434.808 101.967C431.035 101.967 426.528 99.1424 426.528 93.2995C426.528 87.553 431.035 84.6637 434.808 84.6637V84.6637ZM435.255 87.7456C432.666 87.7456 429.885 89.6076 429.885 93.2995C429.885 97.0235 432.666 98.8855 435.255 98.8855C437.845 98.8855 440.37 97.0556 440.37 93.2995C440.37 89.5755 437.845 87.7456 435.255 87.7456ZM482.166 78.9492H485.619V88.2593V101.646H482.166V98.8855C481.751 100.234 479.769 101.967 476.764 101.967C472.991 101.967 468.484 99.1424 468.484 93.2995C468.484 87.553 472.991 84.6637 476.764 84.6637C479.769 84.6637 481.751 86.4615 482.166 87.553V78.9492V78.9492ZM477.211 98.8855C479.801 98.8855 482.326 97.0556 482.326 93.2995C482.326 89.5755 479.801 87.7456 477.211 87.7456C474.622 87.7456 471.84 89.6076 471.84 93.2995C471.84 97.0235 474.622 98.8855 477.211 98.8855ZM519.039 84.6637C522.811 84.6637 527.639 87.553 527.639 93.3316C527.639 99.1424 522.811 101.967 519.039 101.967C515.267 101.967 510.439 99.1424 510.439 93.3316C510.439 87.553 515.267 84.6637 519.039 84.6637ZM519.039 87.7456C516.609 87.7456 513.796 89.6076 513.796 93.3316C513.796 97.0235 516.609 98.8855 519.039 98.8855C521.469 98.8855 524.282 97.0235 524.282 93.3316C524.282 89.6076 521.469 87.7456 519.039 87.7456ZM560.483 89.415C559.908 88.1308 558.981 87.4567 557.734 87.4567C556.455 87.4567 555.496 88.2271 555.496 89.2866C555.496 90.2497 556.04 90.9238 557.382 91.4054L559.205 92.0475C561.826 92.9785 564 93.9737 564 97.0235C564 100.266 560.835 102 557.766 102C554.825 102 552.14 100.298 551.5 97.4409L554.249 96.6062C554.729 98.115 555.976 99.2066 557.766 99.2066C559.237 99.2066 560.579 98.3398 560.579 97.0235C560.579 95.9641 559.844 95.322 558.437 94.8084L556.551 94.1342C553.482 93.0427 552.14 91.3733 552.14 89.2545C552.14 86.4615 554.633 84.6637 557.606 84.6637C560.483 84.6637 562.465 86.2367 563.361 88.6124L560.483 89.415Z" fill="black"/>
</g>
<defs>
<clipPath id="clip0_189_126">
<rect width="564" height="102" fill="white"/>
</clipPath>
</defs>
</svg>
