<svg width="784" height="138" viewBox="0 0 784 138" fill="none" xmlns="http://www.w3.org/2000/svg">
<path d="M88.039 0.835003V84.3354H74.5587V30.2987L49.507 84.3354H38.4127L13.4802 30.418V84.3354H0V0.835003H13.003L44.0195 66.5618L75.0359 0.835003H88.039ZM150.31 0.835003L136.234 16.2229H126.571L134.921 0.835003H150.31ZM131.462 21.233C145.539 21.233 163.552 31.9687 163.552 53.4403C163.552 75.0311 145.539 85.5283 131.462 85.5283C117.385 85.5283 99.3719 75.0311 99.3719 53.4403C99.3719 31.9687 117.385 21.233 131.462 21.233ZM131.462 32.6844C122.396 32.6844 111.898 39.603 111.898 53.4403C111.898 67.1582 122.396 74.0768 131.462 74.0768C140.528 74.0768 151.026 67.1582 151.026 53.4403C151.026 39.603 140.528 32.6844 131.462 32.6844ZM208.407 21.3522C220.336 21.3522 232.027 29.1059 232.027 48.4302V84.3354H219.143V49.146C219.143 37.3366 213.536 32.6844 205.544 32.6844C195.284 32.6844 188.604 42.2274 187.172 48.311V84.3354H174.288V22.3065H187.172V35.428C188.365 31.6109 195.523 21.3522 208.407 21.3522ZM256.84 0V11.2129H243.956V0H256.84ZM256.84 22.3065V84.3354H243.956V22.3065H256.84ZM299.666 21.233C310.88 21.233 320.543 26.243 326.15 36.263L316.129 40.7959C312.431 35.7859 307.421 32.6844 299.786 32.6844C290.6 32.6844 280.102 39.603 280.102 53.4403C280.102 67.1582 290.6 73.9575 299.786 73.9575C307.421 73.9575 312.431 70.9753 316.129 65.9653L326.269 70.4982C320.543 80.5182 310.999 85.409 299.666 85.409C285.59 85.409 267.576 75.0311 267.576 53.4403C267.576 31.9687 285.59 21.233 299.666 21.233ZM364.92 21.233C376.134 21.233 383.53 27.913 385.081 31.9687V22.3065H397.965V84.3354H385.081V74.0768C383.53 79.0868 376.134 85.5283 364.92 85.5283C350.844 85.5283 334.023 75.0311 334.023 53.321C334.023 31.9687 350.844 21.233 364.92 21.233ZM366.59 32.6844C356.928 32.6844 346.549 39.6031 346.549 53.321C346.549 67.1582 356.928 74.0768 366.59 74.0768C376.253 74.0768 385.677 67.2775 385.677 53.321C385.677 39.4838 376.253 32.6844 366.59 32.6844ZM475.506 0.835003C494.235 0.835003 505.687 12.2865 505.687 28.3901C505.687 44.4938 494.235 55.2296 475.506 55.2296H460.594V84.3354H447.472V0.835003H475.506ZM474.909 43.7781C485.526 43.7781 492.565 38.768 492.565 28.3901C492.565 18.0122 485.526 13.0022 474.909 13.0022H460.594V43.7781H474.909ZM546.128 21.233C560.205 21.233 579.292 31.9687 576.309 57.9731H526.922C528.83 69.0668 537.658 74.5539 547.679 74.5539C555.91 74.5539 560.324 72.4068 564.857 68.8282L572.134 75.7468C566.646 81.9497 558.773 85.5283 547.321 85.5283C531.574 85.5283 514.038 74.7925 514.038 53.4403C514.038 31.9687 532.051 21.233 546.128 21.233ZM546.128 32.3266C538.135 32.3266 529.188 37.6945 527.041 48.5495H564.976C563.545 37.6945 554.121 32.3266 546.128 32.3266ZM600.287 0V84.3354H587.404V0H600.287ZM643.114 21.233C654.327 21.233 663.99 26.243 669.597 36.263L659.576 40.7959C655.878 35.7859 650.868 32.6844 643.233 32.6844C634.047 32.6844 623.55 39.603 623.55 53.4403C623.55 67.1582 634.047 73.9575 643.233 73.9575C650.868 73.9575 655.878 70.9753 659.576 65.9653L669.716 70.4982C663.99 80.5182 654.447 85.409 643.114 85.409C629.037 85.409 611.024 75.0311 611.024 53.4403C611.024 31.9687 629.037 21.233 643.114 21.233ZM709.561 21.233C723.637 21.233 741.651 31.9687 741.651 53.4403C741.651 75.0311 723.637 85.5283 709.561 85.5283C695.484 85.5283 677.471 75.0311 677.471 53.4403C677.471 31.9687 695.484 21.233 709.561 21.233ZM709.561 32.6844C700.494 32.6844 689.996 39.603 689.996 53.4403C689.996 67.1582 700.494 74.0768 709.561 74.0768C718.627 74.0768 729.125 67.1582 729.125 53.4403C729.125 39.603 718.627 32.6844 709.561 32.6844ZM784 33.0423H770.878V67.7546C770.878 71.0946 772.071 73.7189 775.888 73.7189C779.109 73.7189 781.376 73.1225 784 72.0489V82.904C781.376 84.2161 777.916 85.0511 772.548 85.0511C764.794 85.0511 757.994 81.9497 757.994 68.2318V33.0423H749.405V22.3065H757.994V7.75361H770.878V22.3065H784V33.0423Z" fill="#EAD9E1"/>
<path d="M427.704 137.407L425.175 131.56H411.03L408.502 137.407H403.879L416.206 109.751H419.999L432.326 137.407H427.704ZM412.611 127.965H423.595L418.103 115.243L412.611 127.965ZM466.953 133.377H478.688V137.407H462.607V109.751H466.953V133.377ZM514.105 109.751V137.407H509.759V109.751H514.105ZM554.698 109.277C559.242 109.277 562.363 112.201 563.667 115.045L560.427 116.902C559.044 114.571 557.266 113.149 554.698 113.149C552.13 113.149 550.312 114.65 550.312 116.705C550.312 118.641 551.537 119.826 554.184 120.814L556.12 121.525C561.612 123.54 564.417 125.91 564.417 130.058C564.417 135.155 559.558 138 554.856 138C550.036 138 546.164 135.115 544.978 131.204L548.376 129.466C549.364 131.994 551.497 134.049 554.856 134.049C557.622 134.049 559.913 132.587 559.913 130.098C559.913 127.451 558.135 126.384 554.974 125.199L553.078 124.488C548.929 122.947 546.006 120.853 546.006 116.547C546.006 112.359 549.799 109.277 554.698 109.277ZM617.535 137.407L615.006 131.56H600.862L598.333 137.407H593.71L606.038 109.751H609.831L622.158 137.407H617.535ZM602.442 127.965H613.426L607.934 115.243L602.442 127.965ZM661.368 109.751C669.349 109.751 675.355 115.875 675.355 123.5C675.355 131.283 669.349 137.407 661.368 137.407H652.439V109.751H661.368ZM661.328 133.298C667.373 133.298 670.929 128.913 670.929 123.5C670.929 118.246 667.373 113.86 661.328 113.86H656.785V133.298H661.328ZM720.057 109.356C727.485 109.356 734.28 115.204 734.28 123.579C734.28 131.955 727.485 137.802 720.057 137.802C712.629 137.802 705.833 131.955 705.833 123.579C705.833 115.204 712.629 109.356 720.057 109.356ZM720.057 133.693C725.153 133.693 729.776 129.505 729.776 123.579C729.776 117.653 725.153 113.465 720.057 113.465C714.96 113.465 710.337 117.653 710.337 123.579C710.337 129.505 714.96 133.693 720.057 133.693ZM774.281 109.277C778.824 109.277 781.946 112.201 783.249 115.045L780.01 116.902C778.627 114.571 776.849 113.149 774.281 113.149C771.712 113.149 769.895 114.65 769.895 116.705C769.895 118.641 771.12 119.826 773.767 120.814L775.703 121.525C781.195 123.54 784 125.91 784 130.058C784 135.155 779.14 138 774.439 138C769.618 138 765.746 135.115 764.561 131.204L767.959 129.466C768.947 131.994 771.08 134.049 774.439 134.049C777.204 134.049 779.496 132.587 779.496 130.098C779.496 127.451 777.718 126.384 774.557 125.199L772.661 124.488C768.512 122.947 765.588 120.853 765.588 116.547C765.588 112.359 769.381 109.277 774.281 109.277Z" fill="white"/>
</svg>
