<svg width="280" height="280" viewBox="0 0 280 280" fill="none" xmlns="http://www.w3.org/2000/svg">
<g clip-path="url(#clip0_192_109)">
<path d="M139.914 279.828C217.186 279.828 279.828 217.186 279.828 139.914C279.828 62.6417 217.186 0 139.914 0C62.6417 0 0 62.6417 0 139.914C0 217.186 62.6417 279.828 139.914 279.828Z" fill="#EAD9E1"/>
<path d="M70.2559 121.972V141.047H67.1766V128.703L61.454 141.047H58.9197L53.2243 128.73V141.047H50.145V121.972H53.1153L60.2004 136.987L67.2856 121.972H70.2559ZM84.4806 121.972L81.265 125.487H79.0578L80.9653 121.972H84.4806ZM80.175 126.632C83.3906 126.632 87.5054 129.084 87.5054 133.989C87.5054 138.922 83.3906 141.32 80.175 141.32C76.9595 141.32 72.8446 138.922 72.8446 133.989C72.8446 129.084 76.9595 126.632 80.175 126.632ZM80.175 129.248C78.104 129.248 75.7059 130.828 75.7059 133.989C75.7059 137.123 78.104 138.704 80.175 138.704C82.2461 138.704 84.6441 137.123 84.6441 133.989C84.6441 130.828 82.2461 129.248 80.175 129.248ZM97.7516 126.659C100.477 126.659 103.147 128.43 103.147 132.845V141.047H100.204V133.008C100.204 130.311 98.9233 129.248 97.0976 129.248C94.754 129.248 93.228 131.428 92.901 132.818V141.047H89.9579V126.877H92.901V129.875C93.1735 129.003 94.8085 126.659 97.7516 126.659V126.659ZM108.815 121.781V124.343H105.872V121.781H108.815V121.781ZM108.815 126.877V141.047H105.872V126.877H108.815V126.877ZM118.598 126.632C121.16 126.632 123.367 127.776 124.648 130.065L122.359 131.101C121.514 129.956 120.369 129.248 118.625 129.248C116.527 129.248 114.129 130.828 114.129 133.989C114.129 137.123 116.527 138.677 118.625 138.677C120.369 138.677 121.514 137.995 122.359 136.851L124.675 137.886C123.367 140.175 121.187 141.293 118.598 141.293C115.383 141.293 111.268 138.922 111.268 133.989C111.268 129.084 115.383 126.632 118.598 126.632V126.632ZM133.504 126.632C136.066 126.632 137.755 128.158 138.109 129.084V126.877H141.053V141.047H138.109V138.704C137.755 139.848 136.066 141.32 133.504 141.32C130.289 141.32 126.446 138.922 126.446 133.962C126.446 129.084 130.289 126.632 133.504 126.632V126.632ZM133.886 129.248C131.678 129.248 129.308 130.828 129.308 133.962C129.308 137.123 131.678 138.704 133.886 138.704C136.093 138.704 138.246 137.151 138.246 133.962C138.246 130.801 136.093 129.248 133.886 129.248ZM158.765 121.972C163.044 121.972 165.66 124.588 165.66 128.267C165.66 131.946 163.044 134.398 158.765 134.398H155.359V141.047H152.361V121.972H158.765ZM158.629 131.782C161.054 131.782 162.662 130.638 162.662 128.267C162.662 125.896 161.054 124.752 158.629 124.752H155.359V131.782H158.629ZM174.898 126.632C178.113 126.632 182.473 129.084 181.792 135.025H170.51C170.946 137.559 172.963 138.813 175.252 138.813C177.132 138.813 178.14 138.322 179.176 137.505L180.838 139.085C179.585 140.502 177.786 141.32 175.17 141.32C171.573 141.32 167.567 138.867 167.567 133.989C167.567 129.084 171.682 126.632 174.898 126.632ZM174.898 129.166C173.072 129.166 171.028 130.392 170.538 132.872H179.203C178.876 130.392 176.723 129.166 174.898 129.166ZM187.269 121.781V141.047H184.326V121.781H187.269ZM197.052 126.632C199.614 126.632 201.821 127.776 203.102 130.065L200.813 131.101C199.968 129.956 198.824 129.248 197.079 129.248C194.981 129.248 192.583 130.828 192.583 133.989C192.583 137.123 194.981 138.677 197.079 138.677C198.824 138.677 199.968 137.995 200.813 136.851L203.129 137.886C201.821 140.175 199.641 141.293 197.052 141.293C193.837 141.293 189.722 138.922 189.722 133.989C189.722 129.084 193.837 126.632 197.052 126.632V126.632ZM212.231 126.632C215.446 126.632 219.561 129.084 219.561 133.989C219.561 138.922 215.446 141.32 212.231 141.32C209.015 141.32 204.9 138.922 204.9 133.989C204.9 129.084 209.015 126.632 212.231 126.632ZM212.231 129.248C210.16 129.248 207.762 130.828 207.762 133.989C207.762 137.123 210.16 138.704 212.231 138.704C214.302 138.704 216.7 137.123 216.7 133.989C216.7 130.828 214.302 129.248 212.231 129.248ZM229.235 129.33H226.237V137.26C226.237 138.023 226.51 138.622 227.382 138.622C228.118 138.622 228.635 138.486 229.235 138.241V140.72C228.635 141.02 227.845 141.211 226.619 141.211C224.848 141.211 223.294 140.502 223.294 137.369V129.33H221.332V126.877H223.294V123.553H226.237V126.877H229.235V129.33V129.33Z" fill="#4D3B5B"/>
<path d="M145.006 152.242C145.96 152.242 146.589 152.811 146.721 153.156V152.334H147.818V157.612H146.721V156.739C146.589 157.166 145.96 157.714 145.006 157.714C143.808 157.714 142.376 156.821 142.376 154.973C142.376 153.156 143.808 152.242 145.006 152.242V152.242ZM145.148 153.217C144.325 153.217 143.442 153.806 143.442 154.973C143.442 156.151 144.325 156.739 145.148 156.739C145.97 156.739 146.772 156.161 146.772 154.973C146.772 153.796 145.97 153.217 145.148 153.217V153.217ZM156.998 150.436V157.612H155.902V150.436H156.998ZM166.179 150.436V151.39H165.083V150.436H166.179V150.436ZM166.179 152.334V157.612H165.083V152.334H166.179V152.334ZM176.811 153.745C176.629 153.339 176.334 153.126 175.938 153.126C175.532 153.126 175.228 153.369 175.228 153.704C175.228 154.009 175.4 154.222 175.827 154.374L176.405 154.577C177.238 154.872 177.928 155.186 177.928 156.151C177.928 157.176 176.923 157.724 175.949 157.724C175.015 157.724 174.162 157.186 173.959 156.283L174.832 156.019C174.984 156.496 175.38 156.841 175.949 156.841C176.416 156.841 176.842 156.567 176.842 156.151C176.842 155.816 176.608 155.613 176.162 155.45L175.563 155.237C174.588 154.892 174.162 154.364 174.162 153.694C174.162 152.811 174.954 152.242 175.898 152.242C176.811 152.242 177.441 152.74 177.725 153.491L176.811 153.745ZM188.185 152.242C189.139 152.242 189.768 152.811 189.9 153.156V152.334H190.997V157.612H189.9V156.739C189.768 157.166 189.139 157.714 188.185 157.714C186.987 157.714 185.556 156.821 185.556 154.973C185.556 153.156 186.987 152.242 188.185 152.242V152.242ZM188.327 153.217C187.505 153.217 186.622 153.806 186.622 154.973C186.622 156.151 187.505 156.739 188.327 156.739C189.149 156.739 189.951 156.161 189.951 154.973C189.951 153.796 189.149 153.217 188.327 153.217ZM203.223 150.436H204.319V153.379V157.612H203.223V156.739C203.091 157.166 202.462 157.714 201.507 157.714C200.309 157.714 198.878 156.821 198.878 154.973C198.878 153.156 200.309 152.242 201.507 152.242C202.462 152.242 203.091 152.811 203.223 153.156V150.436V150.436ZM201.649 156.739C202.472 156.739 203.274 156.161 203.274 154.973C203.274 153.796 202.472 153.217 201.649 153.217C200.827 153.217 199.944 153.806 199.944 154.973C199.944 156.151 200.827 156.739 201.649 156.739ZM214.931 152.242C216.129 152.242 217.662 153.156 217.662 154.983C217.662 156.821 216.129 157.714 214.931 157.714C213.733 157.714 212.201 156.821 212.201 154.983C212.201 153.156 213.733 152.242 214.931 152.242ZM214.931 153.217C214.16 153.217 213.266 153.806 213.266 154.983C213.266 156.151 214.16 156.739 214.931 156.739C215.703 156.739 216.596 156.151 216.596 154.983C216.596 153.806 215.703 153.217 214.931 153.217ZM228.091 153.745C227.909 153.339 227.614 153.126 227.218 153.126C226.812 153.126 226.508 153.369 226.508 153.704C226.508 154.009 226.68 154.222 227.107 154.374L227.685 154.577C228.518 154.872 229.208 155.186 229.208 156.151C229.208 157.176 228.203 157.724 227.228 157.724C226.295 157.724 225.442 157.186 225.239 156.283L226.112 156.019C226.264 156.496 226.66 156.841 227.228 156.841C227.695 156.841 228.122 156.567 228.122 156.151C228.122 155.816 227.888 155.613 227.442 155.45L226.843 155.237C225.868 154.892 225.442 154.364 225.442 153.694C225.442 152.811 226.234 152.242 227.178 152.242C228.091 152.242 228.721 152.74 229.005 153.491L228.091 153.745Z" fill="black"/>
</g>
<defs>
<clipPath id="clip0_192_109">
<rect width="279.828" height="279.828" fill="white"/>
</clipPath>
</defs>
</svg>
